<svg width="199" height="199" viewBox="0 0 199 199" fill="none" xmlns="http://www.w3.org/2000/svg">
<rect width="199" height="199" fill="#D0EBFF"/>
<path d="M57.45 105.4C56.9167 105.4 56.6167 105.05 56.55 104.35C57.5833 97.9833 58.4667 93.2667 59.2 90.2C59.9667 87.1667 60.9667 83.65 62.2 79.65C59.1667 82.3833 55.2 83.75 50.3 83.75C47.9 83.75 45.85 83.05 44.15 81.65C42.4833 80.25 41.2167 78.4333 40.35 76.2C39.4833 73.9667 39.05 71.5833 39.05 69.05C39.05 64.25 40.0333 59.1833 42 53.85C44 48.5167 46.5333 44.0667 49.6 40.5C52.7 36.9333 55.7833 35.15 58.85 35.15C61.6167 35.15 63.8333 35.9833 65.5 37.65C67.2 39.2833 68.3 41.5667 68.8 44.5C68.6667 45.5 68.4 46 68 46C67.6667 46 67.25 45.6333 66.75 44.9C66.2833 44.1667 65.8167 43.2667 65.35 42.2C64.05 39.0667 61.8833 37.5 58.85 37.5C55.85 37.5 53 39.2167 50.3 42.65C47.6 46.05 45.4333 50.1833 43.8 55.05C42.1667 59.8833 41.35 64.2 41.35 68C41.35 71.9667 42.0833 75.2167 43.55 77.75C45.0167 80.25 47.3833 81.5 50.65 81.5C56.4167 81.5 60.35 79.9 62.45 76.7C62.9833 75.9 63.35 75.15 63.55 74.45C63.75 73.75 63.85 73.0167 63.85 72.25C63.6833 71.7833 62.8833 70.8167 61.45 69.35C60.0167 67.8833 58.6833 66.7167 57.45 65.85C55.3167 66.2833 52.8833 66.6833 50.15 67.05C49.4833 66.9833 49.15 66.6833 49.15 66.15C49.15 65.7167 49.35 65.3333 49.75 65C51.9167 63.4333 53.8 62.65 55.4 62.65C56.3667 62.65 57.3 62.9 58.2 63.4C62.2667 62.5 66.8 61.25 71.8 59.65C72.6 59.65 73 59.9333 73 60.5C73 60.7 72.9333 60.95 72.8 61.25C68.5 68.35 65.2667 76 63.1 84.2C62.4 86.8 61.85 89.05 61.45 90.95C61.05 92.8833 60.5333 95.4333 59.9 98.6L58.85 104C58.8167 104.367 58.6333 104.683 58.3 104.95C58 105.25 57.7167 105.4 57.45 105.4ZM65.55 70.55C66.0833 69.3833 66.7833 67.9167 67.65 66.15C68.55 64.3833 69.1667 63.2167 69.5 62.65C66.5 63.65 63.5333 64.5 60.6 65.2C61.3667 65.9333 62.25 66.85 63.25 67.95C64.25 69.05 65.0167 69.9167 65.55 70.55Z" fill="#1864AB"/>
<path d="M76.62 83.48C76.34 83.48 76.2 83.3 76.2 82.94L76.89 79.37L78.15 73.04C78.71 70.24 78.99 68.84 78.99 68.84C79.07 68.4 79.18 68.08 79.32 67.88C79.46 67.68 79.64 67.58 79.86 67.58C80.06 67.58 80.21 67.63 80.31 67.73C80.43 67.83 80.49 68.01 80.49 68.27C80.49 68.73 80.35 69.43 80.07 70.37C79.93 70.83 79.83 71.22 79.77 71.54C79.69 71.82 79.6 72.14 79.5 72.5C79.4 72.84 79.29 73.24 79.17 73.7C79.71 72.48 80.22 71.51 80.7 70.79C81.18 70.05 81.78 69.35 82.5 68.69C83.18 68.11 83.86 67.82 84.54 67.82C85.04 67.82 85.46 67.93 85.8 68.15C86.14 68.35 86.31 68.59 86.31 68.87C86.31 69.09 86.23 69.27 86.07 69.41C85.91 69.53 85.71 69.59 85.47 69.59C85.29 69.59 85.12 69.55 84.96 69.47C84.84 69.37 84.68 69.32 84.48 69.32C84.22 69.32 83.84 69.5 83.34 69.86C82.4 70.54 81.6 71.44 80.94 72.56C80.3 73.66 79.79 74.78 79.41 75.92C79.05 77.04 78.66 78.4 78.24 80L77.97 81.11C77.67 82.69 77.22 83.48 76.62 83.48ZM89.6541 83.27C88.6141 83.27 87.8341 82.86 87.3141 82.04C86.8141 81.22 86.5641 80.24 86.5641 79.1C86.5641 77.28 86.8641 75.52 87.4641 73.82C88.0841 72.1 88.9241 70.68 89.9841 69.56C91.0041 68.42 92.1541 67.85 93.4341 67.85C95.2741 67.85 96.1941 69.25 96.1941 72.05C96.1941 73.45 95.9641 74.88 95.5041 76.34C95.0441 77.8 94.4441 79.1 93.7041 80.24C92.9841 81.38 92.2341 82.2 91.4541 82.7C90.8541 83.08 90.2541 83.27 89.6541 83.27ZM89.8941 81.92C90.5141 81.92 91.2041 81.38 91.9641 80.3C92.7441 79.22 93.3941 77.88 93.9141 76.28C94.4541 74.68 94.7241 73.32 94.7241 72.2C94.7241 71.04 94.6541 70.32 94.5141 70.04C94.3941 69.74 94.2441 69.53 94.0641 69.41C93.8841 69.29 93.6041 69.23 93.2241 69.23C92.8041 69.23 92.3641 69.39 91.9041 69.71C90.9841 70.29 90.1841 71.29 89.5041 72.71C88.4441 74.83 87.9141 76.89 87.9141 78.89C87.9141 80.25 88.3041 81.19 89.0841 81.71C89.3641 81.85 89.6341 81.92 89.8941 81.92ZM107.83 83.21C107.37 83.21 107.14 82.81 107.14 82.01V81.29C107.14 81.03 107.13 80.85 107.11 80.75C106.43 77.09 105.98 74.33 105.76 72.47C105.38 73.31 104.84 74.69 104.14 76.61C103.08 79.51 102.27 81.54 101.71 82.7C101.51 82.96 101.28 83.09 101.02 83.09C100.6 83.09 100.39 82.68 100.39 81.86C100.07 80.5 99.7098 78.3 99.3098 75.26C99.1098 73.76 98.9098 72.38 98.7098 71.12C98.5098 69.84 98.3798 69.04 98.3198 68.72C98.3198 68.58 98.3998 68.42 98.5598 68.24C98.7198 68.06 98.8898 67.97 99.0698 67.97C99.4898 67.97 99.7698 68.29 99.9098 68.93C99.9498 69.11 100.04 69.85 100.18 71.15C100.46 73.59 100.71 75.61 100.93 77.21C101.17 78.79 101.39 79.72 101.59 80L102.52 77.48C104.22 73.02 105.23 70 105.55 68.42C105.63 68.04 105.86 67.85 106.24 67.85C106.46 67.85 106.61 67.91 106.69 68.03C106.79 68.13 106.86 68.3 106.9 68.54C107.36 73.24 107.9 77.21 108.52 80.45C109.82 78.67 110.87 77.01 111.67 75.47C112.47 73.91 112.87 72.54 112.87 71.36C112.87 70.5 112.65 69.8 112.21 69.26C112.15 69.18 111.94 69.03 111.58 68.81C110.98 68.53 110.68 68.26 110.68 68C110.68 67.82 110.76 67.65 110.92 67.49C111.1 67.33 111.3 67.24 111.52 67.22C112.34 67.24 112.99 67.65 113.47 68.45C113.95 69.23 114.19 70.23 114.19 71.45C114.19 74.03 112.79 77.08 109.99 80.6C109.81 80.9 109.7 81.09 109.66 81.17C109.32 81.79 109.01 82.29 108.73 82.67C108.45 83.03 108.15 83.21 107.83 83.21ZM116.296 83.3C115.616 83.3 115.276 82.75 115.276 81.65C115.276 81.37 115.326 81.12 115.426 80.9C115.526 80.56 115.616 80.17 115.696 79.73L116.146 77.72L116.746 75.08C116.946 74.1 117.186 73 117.466 71.78C117.506 71.66 117.546 71.46 117.586 71.18C117.786 70.32 117.886 69.82 117.886 69.68V69.38C117.886 69.22 117.816 68.89 117.676 68.39C117.676 68.15 117.756 67.93 117.916 67.73C118.096 67.53 118.306 67.43 118.546 67.43C118.766 67.43 118.956 67.58 119.116 67.88C119.276 68.18 119.356 68.51 119.356 68.87C119.356 69.27 118.896 71.43 117.976 75.35C117.056 79.27 116.596 81.35 116.596 81.59C116.596 81.81 116.696 81.92 116.896 81.92C116.996 81.92 117.176 81.79 117.436 81.53C117.676 81.29 117.876 81.17 118.036 81.17C118.356 81.17 118.516 81.37 118.516 81.77C118.516 82.01 118.376 82.25 118.096 82.49C117.816 82.73 117.496 82.92 117.136 83.06C116.776 83.22 116.496 83.3 116.296 83.3ZM119.326 65.18C119.006 65.18 118.766 65.14 118.606 65.06H118.486C117.906 65.06 117.616 64.72 117.616 64.04C117.616 63.7 117.756 63.39 118.036 63.11C118.336 62.83 118.656 62.69 118.996 62.69C119.336 62.69 119.656 62.81 119.956 63.05C120.296 63.39 120.466 63.72 120.466 64.04C120.466 64.34 120.346 64.61 120.106 64.85C119.886 65.07 119.626 65.18 119.326 65.18ZM130.092 83.18C129.772 83.18 129.542 83.12 129.402 83C129.262 82.88 129.212 82.67 129.252 82.37L130.722 73.61C130.902 72.53 130.992 71.7 130.992 71.12C130.992 70.16 130.722 69.68 130.182 69.68C129.522 69.68 128.612 70.83 127.452 73.13C126.312 75.41 125.132 77.99 123.912 80.87L123.492 81.83C123.132 82.61 122.772 83 122.412 83C122.212 83 122.082 82.96 122.022 82.88C121.982 82.78 121.962 82.58 121.962 82.28C121.962 81.98 122.352 79.67 123.132 75.35C123.932 71.03 124.392 68.76 124.512 68.54C124.632 68.3 124.732 68.15 124.812 68.09C124.912 68.03 125.092 68 125.352 68C125.592 68 125.782 68.09 125.922 68.27C126.082 68.45 126.162 68.63 126.162 68.81C126.162 68.93 126.062 69.32 125.862 69.98C125.262 72.02 124.792 74 124.452 75.92L124.152 77.69C124.492 76.97 124.742 76.41 124.902 76.01C125.462 74.71 125.972 73.57 126.432 72.59C126.912 71.61 127.442 70.7 128.022 69.86C128.902 68.6 129.722 67.97 130.482 67.97C131.822 67.97 132.492 69.05 132.492 71.21C132.492 71.67 132.432 72.26 132.312 72.98C132.192 73.7 132.062 74.44 131.922 75.2C131.642 76.66 131.462 77.66 131.382 78.2L131.172 79.58C130.992 80.82 130.832 81.73 130.692 82.31C130.552 82.89 130.352 83.18 130.092 83.18ZM136.16 95.3C135.18 95.3 134.37 94.97 133.73 94.31C133.09 93.65 132.77 92.79 132.77 91.73C132.77 90.85 132.99 90.05 133.43 89.33C133.85 88.61 134.35 87.98 134.93 87.44C135.53 86.92 136.31 86.31 137.27 85.61C137.39 85.53 137.5 85.45 137.6 85.37C137.7 85.31 137.78 85.26 137.84 85.22C138.7 84.6 139.57 83.93 140.45 83.21C140.59 82.57 140.79 81.66 141.05 80.48C141.31 79.3 141.52 78.41 141.68 77.81C141.14 79.37 140.48 80.66 139.7 81.68C138.94 82.68 138.17 83.18 137.39 83.18C136.65 83.18 136.07 82.92 135.65 82.4C135.25 81.86 135.05 81.12 135.05 80.18C135.05 78.42 135.37 76.59 136.01 74.69C136.67 72.79 137.56 71.16 138.68 69.8C139.78 68.42 141.02 67.73 142.4 67.73C143.04 67.73 143.65 67.89 144.23 68.21C144.35 68.15 144.48 68.12 144.62 68.12C144.94 68.12 145.1 68.28 145.1 68.6C145.1 68.88 145.02 69.28 144.86 69.8C144.7 70.32 144.6 70.64 144.56 70.76C144.3 71.7 143.87 73.49 143.27 76.13L141.95 82.22C142.15 82.08 142.58 81.73 143.24 81.17C143.32 81.11 143.47 80.99 143.69 80.81C143.91 80.61 144.09 80.47 144.23 80.39C144.39 80.29 144.52 80.24 144.62 80.24C144.98 80.24 145.16 80.41 145.16 80.75C145.16 80.99 145.08 81.19 144.92 81.35C143.88 82.15 142.83 82.93 141.77 83.69L140.9 88.1C140.32 91.08 139.57 93.08 138.65 94.1C137.93 94.9 137.1 95.3 136.16 95.3ZM137.51 81.8C137.95 81.8 138.44 81.51 138.98 80.93C139.52 80.35 140.04 79.57 140.54 78.59C141.06 77.59 141.49 76.52 141.83 75.38L143 71.3L143.54 69.32C143.26 69.06 142.87 68.93 142.37 68.93C141.51 68.93 140.61 69.5 139.67 70.64C138.75 71.78 137.97 73.22 137.33 74.96C136.71 76.68 136.4 78.25 136.4 79.67C136.4 81.09 136.77 81.8 137.51 81.8ZM136.1 93.8C136.8 93.8 137.38 93.52 137.84 92.96C138.3 92.4 138.66 91.66 138.92 90.74C139.2 89.84 139.48 88.66 139.76 87.2L140.21 84.83C139.49 85.43 138.77 86 138.05 86.54C136.95 87.36 136.04 88.18 135.32 89C134.6 89.84 134.24 90.8 134.24 91.88C134.24 92.52 134.4 93 134.72 93.32C135.06 93.64 135.52 93.8 136.1 93.8Z" fill="#1864AB"/>
<path d="M69.4 150.9C68.8333 150.9 68.5167 150.55 68.45 149.85C68.9167 145.983 70.2333 138.667 72.4 127.9C74.6 117.1 76.3 108.983 77.5 103.55C74.7 103.45 72.2333 103.4 70.1 103.4C68.2667 103.4 66.55 103.45 64.95 103.55C64.25 103.45 63.9 103.167 63.9 102.7C63.9 101.767 64.75 101.25 66.45 101.15C66.75 101.117 67.2167 101.1 67.85 101.1L78.1 101.3C78.5667 99.9 79.2 99.2 80 99.2C80.6667 99.2 81 99.6167 81 100.45C81 100.617 80.9667 100.9 80.9 101.3C82.5 101.2 84.9333 101.067 88.2 100.9C91.5 100.733 93.7167 100.65 94.85 100.65C95.4167 100.817 95.7 101.1 95.7 101.5C95.7 102.5 94.8833 103 93.25 103C91.9167 103 89.2167 103.1 85.15 103.3C82.75 103.467 81 103.55 79.9 103.55C78.8667 108.65 77.8333 113.533 76.8 118.2C75.5 124.133 74.4 129.317 73.5 133.75C72.6333 138.183 71.7167 143.433 70.75 149.5C70.65 149.9 70.4667 150.233 70.2 150.5C69.9333 150.767 69.6667 150.9 69.4 150.9Z" fill="#1864AB"/>
<path d="M88.99 130.27C87.95 130.27 87.17 129.86 86.65 129.04C86.15 128.22 85.9 127.24 85.9 126.1C85.9 124.28 86.2 122.52 86.8 120.82C87.42 119.1 88.26 117.68 89.32 116.56C90.34 115.42 91.49 114.85 92.77 114.85C94.61 114.85 95.53 116.25 95.53 119.05C95.53 120.45 95.3 121.88 94.84 123.34C94.38 124.8 93.78 126.1 93.04 127.24C92.32 128.38 91.57 129.2 90.79 129.7C90.19 130.08 89.59 130.27 88.99 130.27ZM89.23 128.92C89.85 128.92 90.54 128.38 91.3 127.3C92.08 126.22 92.73 124.88 93.25 123.28C93.79 121.68 94.06 120.32 94.06 119.2C94.06 118.04 93.99 117.32 93.85 117.04C93.73 116.74 93.58 116.53 93.4 116.41C93.22 116.29 92.94 116.23 92.56 116.23C92.14 116.23 91.7 116.39 91.24 116.71C90.32 117.29 89.52 118.29 88.84 119.71C87.78 121.83 87.25 123.89 87.25 125.89C87.25 127.25 87.64 128.19 88.42 128.71C88.7 128.85 88.97 128.92 89.23 128.92ZM98.4358 142.3C97.4558 142.3 96.6458 141.97 96.0058 141.31C95.3658 140.65 95.0458 139.79 95.0458 138.73C95.0458 137.85 95.2658 137.05 95.7058 136.33C96.1258 135.61 96.6258 134.98 97.2058 134.44C97.8058 133.92 98.5858 133.31 99.5458 132.61C99.6658 132.53 99.7758 132.45 99.8758 132.37C99.9758 132.31 100.056 132.26 100.116 132.22C100.976 131.6 101.846 130.93 102.726 130.21C102.866 129.57 103.066 128.66 103.326 127.48C103.586 126.3 103.796 125.41 103.956 124.81C103.416 126.37 102.756 127.66 101.976 128.68C101.216 129.68 100.446 130.18 99.6658 130.18C98.9258 130.18 98.3458 129.92 97.9258 129.4C97.5258 128.86 97.3258 128.12 97.3258 127.18C97.3258 125.42 97.6458 123.59 98.2858 121.69C98.9458 119.79 99.8358 118.16 100.956 116.8C102.056 115.42 103.296 114.73 104.676 114.73C105.316 114.73 105.926 114.89 106.506 115.21C106.626 115.15 106.756 115.12 106.896 115.12C107.216 115.12 107.376 115.28 107.376 115.6C107.376 115.88 107.296 116.28 107.136 116.8C106.976 117.32 106.876 117.64 106.836 117.76C106.576 118.7 106.146 120.49 105.546 123.13L104.226 129.22C104.426 129.08 104.856 128.73 105.516 128.17C105.596 128.11 105.746 127.99 105.966 127.81C106.186 127.61 106.366 127.47 106.506 127.39C106.666 127.29 106.796 127.24 106.896 127.24C107.256 127.24 107.436 127.41 107.436 127.75C107.436 127.99 107.356 128.19 107.196 128.35C106.156 129.15 105.106 129.93 104.046 130.69L103.176 135.1C102.596 138.08 101.846 140.08 100.926 141.1C100.206 141.9 99.3758 142.3 98.4358 142.3ZM99.7858 128.8C100.226 128.8 100.716 128.51 101.256 127.93C101.796 127.35 102.316 126.57 102.816 125.59C103.336 124.59 103.766 123.52 104.106 122.38L105.276 118.3L105.816 116.32C105.536 116.06 105.146 115.93 104.646 115.93C103.786 115.93 102.886 116.5 101.946 117.64C101.026 118.78 100.246 120.22 99.6058 121.96C98.9858 123.68 98.6758 125.25 98.6758 126.67C98.6758 128.09 99.0458 128.8 99.7858 128.8ZM98.3758 140.8C99.0758 140.8 99.6558 140.52 100.116 139.96C100.576 139.4 100.936 138.66 101.196 137.74C101.476 136.84 101.756 135.66 102.036 134.2L102.486 131.83C101.766 132.43 101.046 133 100.326 133.54C99.2258 134.36 98.3158 135.18 97.5958 136C96.8758 136.84 96.5158 137.8 96.5158 138.88C96.5158 139.52 96.6758 140 96.9958 140.32C97.3358 140.64 97.7958 140.8 98.3758 140.8ZM111.812 130.3C111.172 130.3 110.672 130.2 110.312 130C109.952 129.78 109.662 129.45 109.442 129.01C109.022 128.23 108.812 127.29 108.812 126.19C108.812 124.27 109.102 122.45 109.682 120.73C110.262 118.99 111.052 117.53 112.052 116.35C113.012 115.23 114.062 114.67 115.202 114.67C115.802 114.67 116.272 114.92 116.612 115.42C116.972 115.9 117.152 116.49 117.152 117.19C117.152 118.41 116.832 119.47 116.192 120.37C115.572 121.27 114.732 122.02 113.672 122.62C112.752 123.16 111.632 123.7 110.312 124.24L110.252 126.4C110.252 128.08 110.762 128.92 111.782 128.92C112.202 128.92 112.602 128.84 112.982 128.68C113.382 128.52 113.812 128.3 114.272 128.02C114.812 127.7 115.192 127.54 115.412 127.54C115.752 127.54 115.922 127.72 115.922 128.08C115.922 128.34 115.672 128.65 115.172 129.01C114.692 129.37 114.122 129.68 113.462 129.94C112.802 130.18 112.252 130.3 111.812 130.3ZM110.552 122.8C111.892 122.26 112.912 121.78 113.612 121.36C114.312 120.94 114.842 120.41 115.202 119.77C115.582 119.13 115.772 118.29 115.772 117.25C115.772 116.47 115.442 116.08 114.782 116.08C114.202 116.08 113.522 116.61 112.742 117.67C111.922 118.73 111.262 120.12 110.762 121.84C110.622 122.32 110.552 122.64 110.552 122.8ZM121.419 130.12C120.719 130.12 120.189 129.94 119.829 129.58C119.489 129.22 119.319 128.57 119.319 127.63C119.319 127.11 119.379 126.51 119.499 125.83L119.769 124.12L120.099 122.71L120.279 121.9L120.669 120.25C120.709 119.99 120.799 119.57 120.939 118.99L121.089 118.39L121.359 117.1L121.539 116.2C120.759 116.2 120.039 116.25 119.379 116.35C118.979 116.29 118.779 116.12 118.779 115.84C118.779 115.64 118.859 115.45 119.019 115.27C119.179 115.09 119.369 114.99 119.589 114.97L121.749 115.03C121.749 115.03 121.799 114.78 121.899 114.28C121.939 113.88 122.019 113.42 122.139 112.9C122.259 112.38 122.409 111.92 122.589 111.52C122.769 111.08 123.029 110.86 123.369 110.86C123.689 110.86 123.849 111.04 123.849 111.4V111.58C123.769 111.98 123.699 112.27 123.639 112.45L123.129 115H125.289C126.049 115 126.519 115.06 126.699 115.18C126.859 115.3 126.939 115.45 126.939 115.63C126.939 115.95 126.789 116.16 126.489 116.26C126.209 116.34 125.719 116.38 125.019 116.38C124.379 116.38 123.669 116.35 122.889 116.29C122.769 116.95 122.359 118.78 121.659 121.78C121.019 124.5 120.699 126.22 120.699 126.94C120.699 127.72 120.789 128.23 120.969 128.47C121.069 128.63 121.279 128.71 121.599 128.71C121.879 128.71 122.119 128.64 122.319 128.5C122.539 128.34 122.759 128.13 122.979 127.87C123.199 127.59 123.389 127.38 123.549 127.24C123.709 127.1 123.879 127.03 124.059 127.03C124.459 127.03 124.659 127.23 124.659 127.63C124.659 127.83 124.459 128.16 124.059 128.62C123.659 129.08 123.279 129.45 122.919 129.73C122.599 129.99 122.099 130.12 121.419 130.12ZM128.751 130.24C128.411 130.24 128.241 130.07 128.241 129.73C128.241 129.45 129.221 124.8 131.181 115.78C131.741 113.08 132.291 110.35 132.831 107.59C133.391 104.81 133.801 102.78 134.061 101.5C134.161 101.2 134.331 101.05 134.571 101.05C135.091 101.05 135.411 101.3 135.531 101.8C135.251 103.24 134.801 105.46 134.181 108.46C133.561 111.44 133.031 113.97 132.591 116.05L131.451 121.3C133.491 117.1 135.421 115 137.241 115C137.941 115 138.481 115.28 138.861 115.84C139.241 116.38 139.431 117.03 139.431 117.79C139.431 118.53 139.301 119.51 139.041 120.73L138.561 123.25C138.001 126.15 137.721 127.8 137.721 128.2L137.781 129.37C137.781 129.63 137.691 129.84 137.511 130C137.351 130.14 137.131 130.21 136.851 130.21C136.591 130.21 136.391 130.13 136.251 129.97C136.111 129.79 136.041 129.55 136.041 129.25C136.041 129.07 136.051 128.93 136.071 128.83L137.811 119.08C137.871 118.78 137.901 118.42 137.901 118C137.901 117 137.621 116.5 137.061 116.5C136.421 116.5 135.661 117.06 134.781 118.18C133.901 119.28 133.071 120.53 132.291 121.93C131.531 123.33 131.051 124.33 130.851 124.93C130.611 125.65 130.381 126.46 130.161 127.36C129.941 128.24 129.831 128.8 129.831 129.04C129.851 129.54 129.801 129.86 129.681 130C129.561 130.16 129.251 130.24 128.751 130.24ZM145.064 130.3C144.424 130.3 143.924 130.2 143.564 130C143.204 129.78 142.914 129.45 142.694 129.01C142.274 128.23 142.064 127.29 142.064 126.19C142.064 124.27 142.354 122.45 142.934 120.73C143.514 118.99 144.304 117.53 145.304 116.35C146.264 115.23 147.314 114.67 148.454 114.67C149.054 114.67 149.524 114.92 149.864 115.42C150.224 115.9 150.404 116.49 150.404 117.19C150.404 118.41 150.084 119.47 149.444 120.37C148.824 121.27 147.984 122.02 146.924 122.62C146.004 123.16 144.884 123.7 143.564 124.24L143.504 126.4C143.504 128.08 144.014 128.92 145.034 128.92C145.454 128.92 145.854 128.84 146.234 128.68C146.634 128.52 147.064 128.3 147.524 128.02C148.064 127.7 148.444 127.54 148.664 127.54C149.004 127.54 149.174 127.72 149.174 128.08C149.174 128.34 148.924 128.65 148.424 129.01C147.944 129.37 147.374 129.68 146.714 129.94C146.054 130.18 145.504 130.3 145.064 130.3ZM143.804 122.8C145.144 122.26 146.164 121.78 146.864 121.36C147.564 120.94 148.094 120.41 148.454 119.77C148.834 119.13 149.024 118.29 149.024 117.25C149.024 116.47 148.694 116.08 148.034 116.08C147.454 116.08 146.774 116.61 145.994 117.67C145.174 118.73 144.514 120.12 144.014 121.84C143.874 122.32 143.804 122.64 143.804 122.8ZM152.421 130.48C152.141 130.48 152.001 130.3 152.001 129.94L152.691 126.37L153.951 120.04C154.511 117.24 154.791 115.84 154.791 115.84C154.871 115.4 154.981 115.08 155.121 114.88C155.261 114.68 155.441 114.58 155.661 114.58C155.861 114.58 156.011 114.63 156.111 114.73C156.231 114.83 156.291 115.01 156.291 115.27C156.291 115.73 156.151 116.43 155.871 117.37C155.731 117.83 155.631 118.22 155.571 118.54C155.491 118.82 155.401 119.14 155.301 119.5C155.201 119.84 155.091 120.24 154.971 120.7C155.511 119.48 156.021 118.51 156.501 117.79C156.981 117.05 157.581 116.35 158.301 115.69C158.981 115.11 159.661 114.82 160.341 114.82C160.841 114.82 161.261 114.93 161.601 115.15C161.941 115.35 162.111 115.59 162.111 115.87C162.111 116.09 162.031 116.27 161.871 116.41C161.711 116.53 161.511 116.59 161.271 116.59C161.091 116.59 160.921 116.55 160.761 116.47C160.641 116.37 160.481 116.32 160.281 116.32C160.021 116.32 159.641 116.5 159.141 116.86C158.201 117.54 157.401 118.44 156.741 119.56C156.101 120.66 155.591 121.78 155.211 122.92C154.851 124.04 154.461 125.4 154.041 127L153.771 128.11C153.471 129.69 153.021 130.48 152.421 130.48Z" fill="#1864AB"/>
</svg>
